# xmcd CD database file
# Copyright (C) 1996 Ti Kan
#
# Track frame offsets:
#  182
#  17317
#  48242
#  78470
#  94235
#  111540
#  122732
#  146840
#  150142
#  164235
#  186562
#  199805
#  206890
#  220060
#  228210
#  241680
#  251600
#  270757
#  286360
#
# Disc length: 4080 seconds
#
# Revision: 2
# Processed by: cddbd v1.4b41PL1 Copyright (c) Steve Scherf et al.
# Submitted via: CDWizzard Release:4.12
#
DISCID=0d0fee13
DTITLE=Son House - The Complete Library of Congress Sessions: 1941 - 1942
DYEAR=1900
DGENRE=
TTITLE0=Levee Camp Blues
TTITLE1=Government Fleet Blues
TTITLE2=Walking Blues
TTITLE3=Shetland Pony blues
TTITLE4=Fo' Clock Blues
TTITLE5=Camp Hollers
TTITLE6=Delta Blues
TTITLE7=Special Rider Blues
TTITLE8=Special Rider Blues
TTITLE9=Low-Down Dirty Blues
TTITLE10=Depot Blues
TTITLE11=The Key Of Minor
TTITLE12=American Defense
TTITLE13=Am I Right Or Wrong
TTITLE14=Walking Blues
TTITLE15=County Farm Blues
TTITLE16=The Pony Blues
TTITLE17=The Jinx Blues - Part 1
TTITLE18=The Jinx Blues - Part 2
EXTD=
EXTT0=
EXTT1=
EXTT2=
EXTT3=
EXTT4=
EXTT5=
EXTT6=
EXTT7=
EXTT8=
EXTT9=
EXTT10=
EXTT11=
EXTT12=
EXTT13=
EXTT14=
EXTT15=
EXTT16=
EXTT17=
EXTT18=
PLAYORDER=
